<?xml version="1.0" encoding="UTF-8"?>
<svg id="Layer_1" data-name="Layer 1" xmlns="http://www.w3.org/2000/svg" viewBox="0 0 65.02 31.71">
  <defs>
    <style>
      .cls-1, .cls-2 {
        fill: #fff;
        stroke-width: 0px;
      }

      .cls-2 {
        fill-rule: evenodd;
      }
    </style>
  </defs>
  <path class="cls-2" d="M33.74,27.49c-1.26-.08-2.71-.3-3.85-.63-.21-.06-1.1-.39-1.33-.49-3.98-1.84-6.75-5.87-6.75-10.53,0-6.4,5.21-11.62,11.61-11.62s11.52,5.13,11.61,11.45h4.19C49.14,7.03,42.09.02,33.43.02s-15.81,7.09-15.81,15.81c0,6.01,3.38,11.24,8.33,13.91.89.47,2.18.96,2.61,1.09,1.41.42,3.14.7,4.68.82.52.04,2.35.06,2.88.06h28.89v-4.18h-28.85c-.38,0-2.06-.01-2.44-.04ZM36.17,20.93h0c-.3,0-1.9,0-2.2-.03-.5-.04-1.22-.12-1.69-.22-.53-.14-1.02-.33-1.24-.45-1.56-.84-2.62-2.49-2.62-4.39,0-2.76,2.24-5,5-5s4.9,2.15,4.99,4.84h4.03c-.08-4.91-4.09-8.87-9.02-8.87s-9.04,4.04-9.04,9.03c0,3.52,2.02,6.56,4.95,8.05.45.26,1.3.54,1.54.6.83.22,1.94.37,2.85.43.33.03,1.97.04,2.32.04h0s28.96,0,28.96,0v-4.03h-28.84ZM15.03,31.69h-4.22V4.22h-6.17V0h10.4v31.69ZM0,6.33v4.06h4.64v21.3h4.06V6.33H0Z"/>
  <path class="cls-1" d="M57.55.29c-1.52,0-2.78,1.21-2.78,2.74s1.26,2.78,2.78,2.78,2.78-1.26,2.78-2.78-1.21-2.74-2.78-2.74ZM57.55,5.36c-1.26,0-2.34-.99-2.34-2.33s1.08-2.29,2.34-2.29,2.33,1.01,2.33,2.29c0,1.35-1.08,2.33-2.33,2.33Z"/>
  <path class="cls-1" d="M58.61,3.78c0-.31-.04-.59-.4-.7.44-.15.48-.44.48-.62,0-.71-.64-.8-.9-.8h-1.21v2.74h.51v-1.12h.4c.57,0,.62.26.62.51,0,.47,0,.55.11.62h.51c-.11-.11-.07-.2-.11-.62ZM57.68,2.88h-.6v-.86h.51c.35,0,.59.11.59.44,0,.17-.09.42-.51.42Z"/>
</svg>